<svg width="122" height="35" viewBox="0 0 122 35" fill="none" xmlns="http://www.w3.org/2000/svg">
<path d="M9.9802 5.68639L0 0V11.8381C0 13.2754 0.77105 14.6021 2.0198 15.3136L12 21V9.16185C12 7.72463 11.2289 6.39789 9.9802 5.68639Z" fill="#4EB648"/>
<path fill-rule="evenodd" clip-rule="evenodd" d="M17.9802 17.5927L12 21L14.5 10.1337L20 7V14.1172C20 15.5544 19.229 16.8812 17.9802 17.5927Z" fill="#00A557"/>
<path d="M12 21V11.5581L14.5 10.1337L12 21Z" fill="#196034"/>
<path d="M9.9802 31.5927L4 35V27.8828C4 26.4456 4.77105 25.1188 6.0198 24.4073L12 21V28.1172C12 29.5544 11.229 30.8812 9.9802 31.5927Z" fill="#196034"/>
<path fill-rule="evenodd" clip-rule="evenodd" d="M74.2227 22.6015H78.5323L79.4313 20.647H84.3583L85.2572 22.6015H89.5669L84.0156 12.3953H79.774L74.2227 22.6015ZM81.8948 15.2911L83.2279 18.1895H80.5617L81.8948 15.2911Z" fill="#196034"/>
<path d="M61.399 12.3953H56.6334V22.6015H60.4851V17.1412L64.1459 22.352H66.3908L70.0608 17.1412V22.6015H73.9125V12.3953H69.1469L65.2683 17.3282L61.399 12.3953Z" fill="#196034"/>
<path d="M41.3881 12.3953H45.1569V17.2372C45.1569 18.8996 46.6777 19.3929 48.1034 19.3929C49.5292 19.3929 51.05 18.8996 51.05 17.2372V12.3953H54.8188V18.4062C54.8188 20.5621 53.5973 22.6994 48.208 22.6015C42.8187 22.6994 41.3881 20.5621 41.3881 18.4062V12.3953Z" fill="#196034"/>
<path d="M30.6651 12.3953L33.5506 15.9719L36.4707 12.3953H41.0149L35.3943 18.9438V22.365H31.6591V18.9438L26 12.3953H30.6651Z" fill="#196034"/>
<path fill-rule="evenodd" clip-rule="evenodd" d="M116.766 14.929C112.663 14.929 111.775 17.4341 111.775 18.8148C111.775 20.1955 112.663 22.8781 116.766 22.8781C120.868 22.8781 121.756 20.0772 121.756 18.8148C121.756 17.5524 120.868 14.929 116.766 14.929ZM120.02 18.8148C120.02 17.9666 119.685 16.1322 116.766 16.1322C113.846 16.1322 113.452 18.0258 113.452 18.8148C113.452 19.6038 113.846 21.4973 116.766 21.4973C119.685 21.4973 120.02 19.6629 120.02 18.8148Z" fill="#00A557"/>
<path fill-rule="evenodd" clip-rule="evenodd" d="M95.5669 12.1781V22.7521H102.479C103.756 22.7521 106.006 22.5306 106.006 19.9678C106.006 17.405 103.339 17.2592 103.339 17.2592C103.339 17.2592 105.673 16.78 105.673 14.6548C105.673 12.5296 103.506 12.1781 102.479 12.1781H95.5669ZM97.2129 16.7383V13.3657H101.881C101.881 13.3657 103.933 13.2203 103.933 15.052C103.933 16.8838 101.881 16.7383 101.881 16.7383H97.2129ZM97.2129 21.5196V17.9452H101.881C102.908 17.9452 104.224 17.9452 104.224 19.7324C104.224 21.5196 102.777 21.5196 101.881 21.5196H97.2129Z" fill="#00A557"/>
<path d="M108.285 22.7521H109.934V15.2563H108.285V22.7521Z" fill="#00A557"/>
<path d="M108.285 12.1219H109.934V13.7698H108.285V12.1219Z" fill="#00A557"/>
</svg>
